<?xml version="1.0" standalone="no"?><!DOCTYPE svg PUBLIC "-//W3C//DTD SVG 1.1//EN" "http://www.w3.org/Graphics/SVG/1.1/DTD/svg11.dtd"><svg class="icon" width="200px" height="200.00px" viewBox="0 0 1024 1024" version="1.1" xmlns="http://www.w3.org/2000/svg"><path d="M949.248 1021.952h-874.788571c-40.228571 0-73.142857-32.914286-73.142858-73.142857v-874.788572c0-40.228571 32.914286-73.142857 73.142858-73.142857h874.788571c40.228571 0 73.142857 32.914286 73.142857 73.142857v874.788572c0 40.228571-32.914286 73.142857-73.142857 73.142857z" fill="#FF5015" /><path d="M511.853714 615.716571c-14.336 0-26.038857-11.702857-26.038857-26.038857v-156.525714c0-14.336 11.702857-26.038857 26.038857-26.038857s26.038857 11.702857 26.038857 26.038857v156.525714c0.146286 14.482286-11.556571 26.038857-26.038857 26.038857z" fill="#FCFCFC" /><path d="M616.740571 616.448h-93.915428c-14.336 0-26.038857-11.702857-26.038857-26.038857s11.702857-26.038857 26.038857-26.038857h93.915428c14.336 0 26.038857 11.702857 26.038858 26.038857s-11.702857 26.038857-26.038858 26.038857z m-443.245714-141.458286c-1.609143 0-3.218286-0.146286-4.681143-0.438857-14.189714-2.633143-23.552-16.237714-20.918857-30.427428 32.182857-175.542857 185.344-302.957714 364.105143-302.957715s331.776 127.414857 364.105143 302.957715c1.462857 7.606857-0.731429 15.506286-5.558857 21.357714-4.973714 5.851429-12.288 9.362286-20.041143 9.362286h-95.963429c-14.336 0-26.038857-11.702857-26.038857-26.038858s11.702857-26.038857 26.038857-26.038857h63.049143c-38.912-134.582857-162.816-229.376-305.737143-229.376-153.6 0-285.110857 109.568-312.905143 260.242286-2.194286 12.580571-13.165714 21.357714-25.453714 21.357714z" fill="#FCFCFC" /><path d="M511.853714 881.810286c-178.761143 0-331.776-127.414857-364.105143-302.957715-1.462857-7.606857 0.731429-15.506286 5.558858-21.357714 4.973714-5.851429 12.288-9.362286 20.041142-9.362286h95.963429c14.336 0 26.038857 11.702857 26.038857 26.038858s-11.702857 26.038857-26.038857 26.038857H206.262857c38.912 134.729143 162.669714 229.522286 305.590857 229.522285 153.6 0 285.110857-109.568 312.905143-260.242285 2.633143-14.189714 16.237714-23.552 30.427429-20.918857 14.189714 2.633143 23.552 16.237714 20.918857 30.427428-32.329143 175.396571-185.490286 302.811429-364.251429 302.811429z" fill="#FCFCFC" /></svg>