<?xml version="1.0" standalone="no"?><!DOCTYPE svg PUBLIC "-//W3C//DTD SVG 1.1//EN" "http://www.w3.org/Graphics/SVG/1.1/DTD/svg11.dtd"><svg class="icon" width="200px" height="200.00px" viewBox="0 0 1024 1024" version="1.1" xmlns="http://www.w3.org/2000/svg"><path d="M861.090909 465.454545v465.454546H162.909091V465.454545h698.181818m0-93.090909H162.909091c-51.2 0-93.090909 41.890909-93.090909 93.090909v465.454546c0 51.2 41.890909 93.090909 93.090909 93.090909h698.181818c51.2 0 93.090909-41.890909 93.090909-93.090909V465.454545c0-51.2-41.890909-93.090909-93.090909-93.090909z" fill="#1D2633" /><path d="M500.363636 93.090909c102.4 0 186.181818 83.781818 186.181819 186.181818v93.090909h-372.363637v-93.090909c0-102.4 83.781818-186.181818 186.181818-186.181818m0-93.090909c-153.6 0-279.272727 125.672727-279.272727 279.272727v186.181818h558.545455v-186.181818c0-153.6-125.672727-279.272727-279.272728-279.272727z" fill="#1D2633" /><path d="M512 628.363636m-93.090909 0a93.090909 93.090909 0 1 0 186.181818 0 93.090909 93.090909 0 1 0-186.181818 0Z" fill="#176AFD" /><path d="M512 861.090909c-25.6 0-46.545455-20.945455-46.545455-46.545454v-162.909091c0-25.6 20.945455-46.545455 46.545455-46.545455s46.545455 20.945455 46.545455 46.545455v162.909091c0 25.6-20.945455 46.545455-46.545455 46.545454z" fill="#176AFD" /></svg>