<?xml version="1.0" standalone="no"?><!DOCTYPE svg PUBLIC "-//W3C//DTD SVG 1.1//EN" "http://www.w3.org/Graphics/SVG/1.1/DTD/svg11.dtd"><svg class="icon" width="200px" height="200.00px" viewBox="0 0 1024 1024" version="1.1" xmlns="http://www.w3.org/2000/svg"><path d="M503.580444 190.577778a378.311111 378.311111 0 1 1 0 756.622222 378.311111 378.311111 0 0 1 0-756.622222z m0 73.955555a304.355556 304.355556 0 1 0 0 608.711111 304.355556 304.355556 0 0 0 0-608.711111z" fill="#008887" /><path d="M503.580444 52.110222a179.2 179.2 0 1 1 0 358.4 179.2 179.2 0 0 1 0-358.4z m0 73.955556a105.244444 105.244444 0 1 0 0 210.488889 105.244444 105.244444 0 0 0 0-210.488889z" fill="#008887" /><path d="M503.580444 341.333333a113.777778 113.777778 0 1 0 0-227.555555 113.777778 113.777778 0 0 0 0 227.555555zM808.049778 877.340444a113.777778 113.777778 0 1 0 0-227.555555 113.777778 113.777778 0 0 0 0 227.555555zM190.691556 877.340444a113.777778 113.777778 0 1 0 0-227.555555 113.777778 113.777778 0 0 0 0 227.555555z" fill="#93D784" /><path d="M199.111111 583.964444a179.2 179.2 0 1 1 0 358.4 179.2 179.2 0 0 1 0-358.4z m0 73.955556a105.244444 105.244444 0 1 0 0 210.488889 105.244444 105.244444 0 0 0 0-210.488889zM808.049778 583.964444a179.2 179.2 0 1 1 0 358.4 179.2 179.2 0 0 1 0-358.4z m0 73.955556a105.244444 105.244444 0 1 0 0 210.488889 105.244444 105.244444 0 0 0 0-210.488889z" fill="#008887" /></svg>